<svg id="visual" viewBox="0 0 540 960" width="540" height="960" xmlns="http://www.w3.org/2000/svg" xmlns:xlink="http://www.w3.org/1999/xlink" version="1.1"><rect width="540" height="960" fill="#f0cccc"></rect><g><g transform="translate(459 134)"><path d="M32.2 -10.6C36.3 2.4 30.7 18.4 19.2 26.8C7.8 35.1 -9.4 35.9 -20.4 27.9C-31.5 20 -36.3 3.3 -31.8 -10C-27.4 -23.4 -13.7 -33.4 0.2 -33.4C14 -33.5 28 -23.6 32.2 -10.6Z" fill="#684142"></path></g><g transform="translate(295 862)"><path d="M33.8 -10.5C38.3 2.8 32.6 19.9 20.9 28.3C9.3 36.6 -8.4 36.2 -19.7 27.8C-30.9 19.5 -35.9 3.1 -31.5 -10C-27.2 -23 -13.6 -32.8 0.5 -33C14.7 -33.2 29.3 -23.7 33.8 -10.5Z" fill="#684142"></path></g><g transform="translate(527 737)"><path d="M34.1 -10.8C38.4 2.3 32.2 19 20.6 27.3C8.9 35.5 -8.2 35.1 -19.5 26.9C-30.8 18.7 -36.2 2.6 -32 -10.3C-27.8 -23.2 -13.9 -32.9 0.5 -33C14.9 -33.2 29.8 -23.9 34.1 -10.8Z" fill="#684142"></path></g></g></svg>