<svg id="visual" viewBox="0 0 900 450" width="900" height="450" xmlns="http://www.w3.org/2000/svg" xmlns:xlink="http://www.w3.org/1999/xlink" version="1.1"><rect width="900" height="450" fill="#f0cccc"></rect><g><g transform="translate(834 432)"><path d="M42.1 -0.1C42.1 20.6 21.1 41.2 0.7 41.2C-19.6 41.2 -39.3 20.6 -39.3 -0.1C-39.3 -20.7 -19.6 -41.4 0.7 -41.4C21.1 -41.4 42.1 -20.7 42.1 -0.1Z" fill="#684142"></path></g><g transform="translate(888 3)"><path d="M40.2 0.2C40.2 20.3 20.1 40.5 -0.7 40.5C-21.4 40.5 -42.8 20.3 -42.8 0.2C-42.8 -19.9 -21.4 -39.9 -0.7 -39.9C20.1 -39.9 40.2 -19.9 40.2 0.2Z" fill="#684142"></path></g><g transform="translate(24 302)"><path d="M40.5 0.3C40.5 20.2 20.3 40.5 -0.6 40.5C-21.4 40.5 -42.8 20.2 -42.8 0.3C-42.8 -19.6 -21.4 -39.3 -0.6 -39.3C20.3 -39.3 40.5 -19.6 40.5 0.3Z" fill="#684142"></path></g></g></svg>